Fly_normalized_Motion_pl08
version=1
nRows=12
nColumns=43
inDegrees=yes
endheader
time		pelvis_tilt		pelvis_list		pelvis_rotation		pelvis_tx		pelvis_ty		pelvis_tz		hip_flexion_r		hip_adduction_r		hip_rotation_r		knee_angle_r		ankle_angle_r		subtalar_angle_r		mtp_angle_r		hip_flexion_l		hip_adduction_l		hip_rotation_l		knee_angle_l		ankle_angle_l		subtalar_angle_l		mtp_angle_l		lumbar_extension		lumbar_bending		lumbar_rotation		neck_flexion		neck_lateral_bending		neck_rotation		arm_flex_r		arm_add_r		arm_rot_r		elbow_flex_r		pro_sup_r		wrist_flex_r		wrist_dev_r		hand_finger_flex_r		arm_flex_l		arm_add_l		arm_rot_l		elbow_flex_l		pro_sup_l		wrist_flex_l		wrist_dev_l		hand_finger_flex_l		
0.515833		0.650353		2.677065		87.039846		0.034618		1.489781		0.936922		48.787622		-0.014223		1.298225		-66.498592		-11.841453		-3.169574		1.529309		45.645156		-9.646651		-5.766974		-46.199767		-25.743153		2.578278		11.758404		-45.619645		-2.889472		2.554801		10.555192		4.191350		-4.110327		-12.126472		-28.378043		-15.903392		67.612734		104.341236		-7.144093		-16.882659		-1.356929		-9.819860		-31.183543		1.805140		44.305854		120.510862		-21.326323		-7.531488		-3.123202		
0.519975		0.532881		2.991196		87.001176		0.034418		1.478713		0.925766		47.725889		-0.255925		1.063406		-64.847477		-11.581864		-3.216356		-0.235117		44.398514		-9.665656		-6.535555		-44.694641		-25.890973		2.893833		9.792129		-45.062356		-3.033231		2.454830		9.012693		4.262090		-3.979092		-14.969104		-28.045202		-16.806060		68.274464		104.203126		-4.108739		-16.407514		-6.844419		-12.697171		-30.702257		0.577550		44.441871		120.167060		-20.417340		-7.807165		-5.071565		
0.524116		0.416686		3.265964		86.943715		0.034260		1.467378		0.914636		46.709237		-0.468516		0.850425		-63.182853		-11.688145		-3.383107		-0.362651		43.200181		-9.649207		-7.210195		-43.176103		-26.384483		2.967701		9.642919		-44.434603		-3.184622		2.480300		7.384794		4.282918		-3.975142		-17.907078		-27.676365		-17.432142		68.823536		104.167887		-4.234860		-16.849446		-7.091348		-15.424359		-30.363727		0.183033		44.545675		119.985373		-21.019846		-7.856947		-5.336021		
0.528258		0.360555		3.521132		86.890230		0.034137		1.455867		0.903395		45.662127		-0.654652		0.523273		-61.462768		-11.834290		-3.561825		-0.529748		41.997174		-9.695055		-7.933379		-41.625815		-26.854477		3.085810		9.524012		-43.778836		-3.280413		2.551726		5.776189		4.293749		-3.938458		-20.829949		-27.273306		-18.045792		69.400423		104.007442		-4.295925		-17.172626		-7.337490		-18.142286		-29.944186		-0.347371		44.677721		119.671264		-21.560641		-7.898958		-5.608244		
0.532399		0.361906		3.762419		86.836528		0.033962		1.444148		0.892085		44.596385		-0.800791		0.128456		-59.700898		-12.043254		-3.711536		-0.756516		40.808797		-9.784708		-8.641511		-40.081552		-27.277546		3.235396		9.424905		-43.098750		-3.310257		2.645287		4.171024		4.272978		-3.872433		-23.746031		-26.881047		-18.634494		70.033230		103.760034		-4.304798		-17.455863		-7.662646		-20.894067		-29.465256		-0.950346		44.886995		119.267627		-22.060461		-7.954697		-5.925672		
0.536540		0.407052		4.115769		86.788640		0.033738		1.432346		0.880633		43.360027		-0.903304		-0.295962		-57.882341		-12.252397		-3.894552		-1.390216		39.512900		-9.924521		-9.441093		-38.604377		-27.530804		3.571544		9.414822		-42.545175		-3.286872		2.657903		2.680713		4.220316		-3.762920		-26.611340		-26.581408		-19.072450		70.788017		103.234792		-3.984168		-17.578085		-8.737345		-23.809031		-28.880484		-1.808532		45.312792		118.386772		-22.308379		-8.029286		-6.603101		
0.540682		0.480978		4.296118		86.711975		0.033392		1.420167		0.869164		42.328197		-1.000908		-0.804289		-56.066795		-12.662817		-3.826125		-1.879639		38.373110		-10.035126		-10.113180		-37.037230		-27.862386		3.739005		9.377295		-41.752604		-3.214077		2.771693		0.943133		4.116554		-3.602128		-29.486065		-26.204165		-19.595357		71.466518		102.901340		-3.871401		-17.867852		-9.546096		-26.591001		-28.273037		-2.458457		45.635461		117.789283		-22.696635		-8.145648		-7.168922		
0.544823		0.534504		4.530254		86.626715		0.032978		1.407899		0.857549		41.202891		-1.093896		-1.287857		-54.198330		-12.939354		-3.707588		-3.605901		37.148728		-10.150079		-10.972709		-35.467506		-28.135131		4.018489		9.665676		-41.008420		-3.146902		2.789642		-0.803568		3.999680		-3.345710		-32.332477		-25.993089		-19.973223		72.223912		102.597662		-2.715272		-18.015290		-12.941263		-29.423102		-27.602954		-3.163844		46.007236		116.199730		-22.440664		-8.454714		-9.123390		
0.548965		0.570335		4.691236		86.532048		0.032511		1.395274		0.845966		40.207053		-1.243139		-1.902848		-52.368829		-13.609389		-3.571693		-3.915431		35.997146		-10.184179		-11.731150		-33.859710		-28.364703		4.081404		9.633736		-40.188164		-3.075334		2.915050		-2.513222		3.784047		-3.288658		-35.293535		-25.549536		-20.589120		73.057801		102.575958		-2.769632		-18.452819		-13.379381		-32.208847		-26.959054		-3.733455		46.537867		115.853950		-23.015642		-8.597557		-9.513519		
0.553106		0.606663		4.856058		86.427777		0.032093		1.382500		0.834289		39.159624		-1.364478		-2.493086		-50.449487		-14.353747		-3.448978		-4.145848		34.814042		-10.236559		-12.618289		-32.228972		-28.535507		4.246947		9.607781		-39.360349		-3.008299		3.024204		-4.274833		3.580232		-3.195003		-38.231797		-25.118892		-21.110433		73.926011		102.605139		-2.987143		-18.819970		-13.667598		-34.981917		-26.230825		-4.419398		47.114210		115.375847		-23.545376		-8.695898		-9.786402		
0.557247		0.658789		4.981948		86.322350		0.031753		1.369496		0.822560		38.126446		-1.460537		-3.114782		-48.489053		-15.123741		-3.308327		-4.412740		33.657570		-10.296910		-13.532703		-30.572726		-28.651893		4.493603		9.620079		-38.489798		-2.937955		3.121114		-6.021258		3.402285		-3.057763		-41.141253		-24.699519		-21.549324		74.816936		102.693718		-3.258824		-19.139612		-14.004703		-37.781440		-25.482848		-5.114872		47.796959		114.797610		-23.980580		-8.844313		-10.059592		
0.561389		0.725171		5.136055		86.255974		0.031513		1.356410		0.810757		36.989875		-1.542070		-3.733008		-46.423718		-15.885447		-3.125671		-4.733532		32.457380		-10.365292		-14.534715		-28.899358		-28.733929		4.856192		9.686050		-37.658867		-2.854523		3.162950		-7.725408		3.277437		-2.915919		-43.982223		-24.249636		-21.923673		75.719356		102.876240		-3.576609		-19.419381		-14.366818		-40.585206		-24.715200		-5.847720		48.588180		114.140480		-24.323686		-9.010090		-10.326043		
